:SAMPLES-PER-SECOND 30
:FULLY-SPECIFIED
:DEGREES
138
root  -14.2048 41.0722 -10.0492 -107.787 -89.1137 106.728
RightUpLeg  -0.77704 -9.03707 -7.95013
RightLeg  3.3847 -3.77674 2.86677
RightFoot  0.634806 -0.282263 2.73097
RightToes  0.00048216 0.542163 -0.142577
Spine  1.66201 -0.494567 2.69726
Spine1  16.5064 -0.609101 0.319611
HEad  -11.2171 -0.900151 -3.2501
LeftShoulder1  6.84834 -10.79 -41.5561
LeftArm  -16.0971 14.9726 -30.1683
LeftForeArm  37.7799 -31.1885 -4.72695
LeftHand  -0.25398 0.0180481 5.50724
RightShoulder  5.1694 8.60145 36.704
RightArm  -9.65794 -8.04585 34.915
RightForeArm  2.05973 21.726 4.76747
RightHand  -1.52594 4.47648 -18.1622
LeftUpLeg  3.56008 6.0972 5.816
LeftLeg  1.03838 8.81819 -3.34849
LeftFoot  -1.73914 0.245349 -2.79705
LeftToes  1.06246e-005 4.65855e-005 -8.18503e-006
139
root  -14.0983 41.0711 -9.90106 -117.983 -88.8845 116.828
RightUpLeg  -0.907114 -9.19958 -8.31242
RightLeg  3.38411 -3.31684 2.85131
RightFoot  0.887114 -0.299032 2.84657
RightToes  0.00048216 0.542163 -0.142577
Spine  1.63849 -0.344899 3.18681
Spine1  16.6177 -0.307838 -0.129048
HEad  -10.9996 -1.37754 -3.15151
LeftShoulder1  6.9329 -10.9194 -41.703
LeftArm  -15.5527 15.2333 -30.5805
LeftForeArm  37.934 -30.3847 -4.53472
LeftHand  -0.25398 0.0180481 5.50724
RightShoulder  5.18149 8.65245 36.6263
RightArm  -7.56565 -3.51681 35.3989
RightForeArm  0.938663 23.4496 4.97277
RightHand  -1.49501 4.17492 -18.3386
LeftUpLeg  3.52798 6.01561 5.44765
LeftLeg  1.05308 9.2195 -3.45388
LeftFoot  -1.72307 0.220133 -2.49364
LeftToes  1.06246e-005 4.65855e-005 -8.18503e-006
140
root  -14.0026 41.0684 -9.75929 -118.949 -88.7397 117.728
RightUpLeg  -1.01898 -9.30291 -8.62795
RightLeg  3.36587 -3.07245 2.79354
RightFoot  1.107 -0.323252 3.03162
RightToes  0.00048216 0.542163 -0.142577
Spine  1.61639 -0.145356 3.73531
Spine1  16.6079 0.0558646 -0.607223
HEad  -10.8549 -1.68911 -3.08192
LeftShoulder1  7.04589 -11.0463 -42.0365
LeftArm  -15.0074 15.6946 -30.6755
LeftForeArm  37.9146 -29.7965 -4.40292
LeftHand  -0.25398 0.0180481 5.50724
RightShoulder  5.16359 8.6442 36.5112
RightArm  -5.66851 1.09582 35.7464
RightForeArm  0.532144 24.8077 5.28243
RightHand  -1.5157 4.00584 -18.898
LeftUpLeg  3.41627 5.843 5.05278
LeftLeg  1.12151 9.55256 -3.44085
LeftFoot  -1.72866 0.201351 -2.27159
LeftToes  1.06246e-005 4.65855e-005 -8.18503e-006
141
root  -13.9092 41.0607 -9.62673 -114.86 -88.6669 113.62
RightUpLeg  -1.18622 -9.38104 -8.90651
RightLeg  3.41559 -3.00761 2.70857
RightFoot  1.26272 -0.351472 3.25897
RightToes  0.00048216 0.542163 -0.142577
Spine  1.63192 0.117002 4.3091
Spine1  16.4599 0.481058 -1.05303
HEad  -10.8498 -1.96309 -3.02932
LeftShoulder1  7.16419 -11.1746 -42.3929
LeftArm  -14.4485 16.3259 -30.643
LeftForeArm  37.5195 -29.2932 -4.31087
LeftHand  -0.25398 0.0180481 5.50724
RightShoulder  5.17067 8.71026 36.3441
RightArm  -3.63175 5.54323 35.8688
RightForeArm  0.508202 25.8788 5.52896
RightHand  -1.56608 4.12496 -19.2747
LeftUpLeg  3.17285 5.67985 4.69127
LeftLeg  1.3211 9.72917 -3.41777
LeftFoot  -1.78638 0.185724 -2.09514
LeftToes  1.06246e-005 4.65855e-005 -8.18503e-006
142
root  -13.8171 41.0519 -9.50725 -104.332 -88.5925 103.074
RightUpLeg  -1.32039 -9.53985 -9.24547
RightLeg  3.49416 -3.04112 2.66397
RightFoot  1.36771 -0.373468 3.43563
RightToes  0.00048216 0.542163 -0.142577
Spine  1.5921 0.435168 4.90534
Spine1  16.4541 1.00617 -1.59858
HEad  -11.016 -2.59793 -2.65628
LeftShoulder1  7.24431 -11.2859 -42.5554
LeftArm  -13.9874 16.8576 -30.6719
LeftForeArm  37.0509 -28.71 -4.20589
LeftHand  -0.25398 0.0180481 5.50724
RightShoulder  5.20956 8.8319 36.2443
RightArm  -1.03608 9.79537 35.5891
RightForeArm  -1.11678 26.9725 5.86685
RightHand  -1.60296 4.20218 -19.5603
LeftUpLeg  2.90799 5.55106 4.33817
LeftLeg  1.52292 9.70832 -3.4575
LeftFoot  -1.81352 0.167349 -1.87751
LeftToes  1.06246e-005 4.65855e-005 -8.18503e-006
143
root  -13.7292 41.0457 -9.39876 -88.0438 -88.4451 86.7501
RightUpLeg  -1.34714 -9.80601 -9.66785
RightLeg  3.52391 -3.14866 2.69873
RightFoot  1.46476 -0.386384 3.53026
RightToes  0.00048216 0.542163 -0.142577
Spine  1.42431 0.766556 5.47827
Spine1  16.7579 1.57311 -2.21412
HEad  -11.3805 -3.5255 -2.01369
LeftShoulder1  7.33298 -11.4221 -42.6922
LeftArm  -13.7472 17.2043 -30.5934
LeftForeArm  36.7418 -28.0603 -4.0793
LeftHand  -0.25398 0.0180481 5.50724
RightShoulder  5.20028 8.7947 36.2956
RightArm  3.54743 14.5142 34.7867
RightForeArm  -5.80873 27.7822 6.29973
RightHand  -1.64728 4.20119 -20.094
LeftUpLeg  2.66492 5.37742 3.94433
LeftLeg  1.666 9.55233 -3.4781
LeftFoot  -1.77416 0.146324 -1.62085
LeftToes  1.06246e-005 4.65855e-005 -8.18503e-006
